# Blender 4.3.0
# www.blender.org
mtllib yarnBall.mtl
o Sphere
v 0.000000 0.382683 -0.923880
v 0.000000 0.000000 -1.000000
v 0.000000 -0.382683 -0.923880
v 0.000000 -0.923880 -0.382683
v 0.146447 0.923880 -0.353553
v 0.270598 0.707107 -0.653281
v 0.353553 0.382683 -0.853553
v 0.382683 0.000000 -0.923880
v 0.353553 -0.382683 -0.853553
v 0.270598 -0.707107 -0.653281
v 0.146447 -0.923880 -0.353553
v 0.270598 0.923880 -0.270598
v 0.500000 0.707107 -0.500000
v 0.653282 0.382683 -0.653281
v 0.707107 0.000000 -0.707107
v 0.653282 -0.382683 -0.653281
v 0.500000 -0.707107 -0.500000
v 0.270598 -0.923880 -0.270598
v 0.353553 0.923880 -0.146447
v 0.653281 0.707107 -0.270598
v 0.853553 0.382683 -0.353553
v 0.923880 0.000000 -0.382683
v 0.853553 -0.382683 -0.353553
v 0.653281 -0.707107 -0.270598
v 0.353553 -0.923880 -0.146447
v 0.382683 0.923880 0.000000
v 0.707107 0.707107 0.000000
v 0.923880 0.382683 0.000000
v 1.000000 0.000000 0.000000
v 0.923880 -0.382683 0.000000
v 0.707107 -0.707107 0.000000
v 0.382683 -0.923880 0.000000
v 0.353553 0.923880 0.146447
v 0.653281 0.707107 0.270598
v 0.853553 0.382683 0.353554
v 0.923879 0.000000 0.382684
v 0.853553 -0.382683 0.353554
v 0.653281 -0.707107 0.270598
v 0.353553 -0.923880 0.146447
v 0.270598 0.923880 0.270598
v 0.500000 0.707107 0.500000
v 0.653281 0.382683 0.653282
v 0.707107 0.000000 0.707107
v 0.653281 -0.382683 0.653282
v 0.500000 -0.707107 0.500000
v 0.270598 -0.923880 0.270598
v 0.146447 0.923880 0.353553
v 0.270598 0.707107 0.653281
v 0.353553 0.382683 0.853553
v 0.382683 0.000000 0.923880
v 0.353553 -0.382683 0.853553
v 0.270598 -0.707107 0.653281
v 0.146447 -0.923880 0.353553
v -0.000000 0.923880 0.382683
v -0.000000 0.707107 0.707107
v -0.000000 0.382683 0.923879
v -0.000000 0.000000 1.000000
v -0.000000 -0.382683 0.923879
v -0.000000 -0.707107 0.707107
v -0.000000 -0.923880 0.382683
v 0.000000 -1.000000 0.000000
v 0.000000 1.000000 0.000000
v -0.146447 0.923880 0.353553
v -0.270598 0.707107 0.653281
v -0.353554 0.382683 0.853553
v -0.382684 0.000000 0.923879
v -0.353554 -0.382683 0.853553
v -0.270598 -0.707107 0.653281
v -0.146447 -0.923880 0.353553
v -0.270598 0.923880 0.270598
v -0.500000 0.707107 0.500000
v -0.653282 0.382683 0.653281
v -0.707107 0.000000 0.707106
v -0.653282 -0.382683 0.653281
v -0.500000 -0.707107 0.500000
v -0.270598 -0.923880 0.270598
v -0.353553 0.923880 0.146446
v -0.653281 0.707107 0.270598
v -0.853553 0.382683 0.353553
v -0.923880 0.000000 0.382683
v -0.853553 -0.382683 0.353553
v -0.653281 -0.707107 0.270598
v -0.353553 -0.923880 0.146446
v -0.382683 0.923880 -0.000000
v -0.707107 0.707107 -0.000000
v -0.923879 0.382683 -0.000000
v -1.000000 0.000000 -0.000001
v -0.923879 -0.382683 -0.000000
v -0.707107 -0.707107 -0.000000
v -0.382683 -0.923880 -0.000000
v -0.353553 0.923880 -0.146447
v -0.653281 0.707107 -0.270598
v -0.853553 0.382683 -0.353554
v -0.923879 0.000000 -0.382684
v -0.853553 -0.382683 -0.353554
v -0.653281 -0.707107 -0.270598
v -0.353553 -0.923880 -0.146447
v -0.270598 0.923880 -0.270598
v -0.500000 0.707107 -0.500000
v -0.653281 0.382683 -0.653282
v -0.707106 0.000000 -0.707107
v -0.653281 -0.382683 -0.653282
v -0.500000 -0.707107 -0.500000
v -0.270598 -0.923880 -0.270598
v -0.146446 0.923880 -0.353554
v -0.270598 0.707107 -0.653281
v -0.353553 0.382683 -0.853553
v -0.382683 0.000000 -0.923880
v -0.353553 -0.382683 -0.853553
v -0.270598 -0.707107 -0.653281
v -0.146446 -0.923880 -0.353554
v 0.000000 0.923880 -0.382683
v 0.000000 0.707107 -0.707107
v 0.000000 -0.707107 -0.707107
v 1.245457 -0.107520 0.551117
v 0.387967 -0.027497 0.427181
v 1.250661 -0.093127 0.514106
v 0.387967 -0.012266 0.390411
v 1.263885 -0.058380 0.497573
v 0.387967 0.024505 0.375180
v 1.277051 -0.023634 0.511567
v 0.387967 0.061275 0.390411
v 1.282705 -0.009241 0.547607
v 0.387967 0.076506 0.427181
v 1.277536 -0.023634 0.584580
v 0.387967 0.061275 0.463952
v 1.264531 -0.058380 0.600873
v 0.387967 0.024505 0.479183
v 0.387967 -0.012266 0.463952
v 1.251314 -0.093127 0.586935
v 0.891431 0.010115 0.502274
v 0.892559 0.046885 0.516274
v 0.893137 0.062116 0.552414
v 0.892974 0.046885 0.589363
v 0.892139 0.010115 0.605504
v 0.890496 -0.026656 0.518525
v 0.890361 -0.041887 0.555442
v 0.891047 -0.026656 0.591465
v 1.531625 -0.321712 0.421867
v 1.556359 -0.294191 0.437329
v 1.568312 -0.282792 0.475334
v 1.560372 -0.294191 0.513546
v 1.537225 -0.321712 0.529604
v 1.508396 -0.349232 0.437870
v 1.500520 -0.360631 0.476124
v 1.512538 -0.349232 0.514172
v 1.775512 -0.605350 0.187405
v 1.799750 -0.577830 0.202798
v 1.809289 -0.566431 0.240183
v 1.798618 -0.577830 0.277575
v 1.773994 -0.605350 0.293064
v 1.750835 -0.632870 0.202952
v 1.740170 -0.644270 0.240338
v 1.749760 -0.632870 0.277666
vn 0.1098 -0.8264 -0.5522
vn 0.1915 -0.1915 -0.9626
vn 0.1632 0.5481 -0.8203
vn 0.0388 0.9800 -0.1949
vn 0.0388 -0.9800 -0.1949
vn 0.1632 -0.5481 -0.8203
vn 0.1915 0.1915 -0.9626
vn 0.1098 0.8264 -0.5522
vn 0.1104 0.9800 -0.1653
vn 0.1104 -0.9800 -0.1653
vn 0.4647 -0.5481 -0.6954
vn 0.5453 0.1915 -0.8161
vn 0.3128 0.8264 -0.4681
vn 0.3128 -0.8264 -0.4681
vn 0.5453 -0.1915 -0.8161
vn 0.4647 0.5481 -0.6954
vn 0.6954 -0.5481 -0.4647
vn 0.8161 0.1915 -0.5453
vn 0.4681 0.8264 -0.3128
vn 0.4681 -0.8264 -0.3128
vn 0.8161 -0.1915 -0.5453
vn 0.6954 0.5481 -0.4647
vn 0.1653 0.9800 -0.1104
vn 0.1653 -0.9800 -0.1104
vn 0.5522 -0.8264 -0.1098
vn 0.9626 -0.1915 -0.1915
vn 0.8203 0.5481 -0.1632
vn 0.1949 0.9800 -0.0388
vn 0.1949 -0.9800 -0.0388
vn 0.8203 -0.5481 -0.1632
vn 0.9626 0.1915 -0.1915
vn 0.5522 0.8264 -0.1098
vn 0.9626 -0.1915 0.1915
vn 0.8203 0.5481 0.1632
vn 0.1949 0.9800 0.0388
vn 0.1949 -0.9800 0.0388
vn 0.8203 -0.5481 0.1632
vn 0.9626 0.1915 0.1915
vn 0.5522 0.8264 0.1098
vn 0.5522 -0.8264 0.1098
vn 0.1653 -0.9800 0.1104
vn 0.6954 -0.5481 0.4647
vn 0.8161 0.1915 0.5453
vn 0.4681 0.8264 0.3128
vn 0.4681 -0.8264 0.3128
vn 0.8161 -0.1915 0.5453
vn 0.6954 0.5481 0.4647
vn 0.1653 0.9800 0.1104
vn 0.5453 0.1915 0.8161
vn 0.3128 0.8264 0.4681
vn 0.3128 -0.8264 0.4681
vn 0.5453 -0.1915 0.8161
vn 0.4647 0.5481 0.6954
vn 0.1104 0.9800 0.1653
vn 0.1104 -0.9800 0.1653
vn 0.4647 -0.5481 0.6954
vn 0.1098 -0.8264 0.5522
vn 0.1915 -0.1915 0.9626
vn 0.1632 0.5481 0.8203
vn 0.0388 0.9800 0.1949
vn 0.0388 -0.9800 0.1949
vn 0.1632 -0.5481 0.8203
vn 0.1915 0.1915 0.9626
vn 0.1098 0.8264 0.5522
vn -0.1632 0.5481 0.8203
vn -0.0388 0.9800 0.1949
vn -0.0388 -0.9800 0.1949
vn -0.1632 -0.5481 0.8203
vn -0.1915 0.1915 0.9626
vn -0.1098 0.8264 0.5522
vn -0.1098 -0.8264 0.5522
vn -0.1915 -0.1915 0.9626
vn -0.1104 -0.9800 0.1653
vn -0.4647 -0.5481 0.6954
vn -0.5453 0.1915 0.8161
vn -0.3128 0.8264 0.4681
vn -0.3128 -0.8264 0.4681
vn -0.5453 -0.1915 0.8161
vn -0.4647 0.5481 0.6954
vn -0.1104 0.9800 0.1653
vn -0.4681 0.8264 0.3128
vn -0.4681 -0.8264 0.3128
vn -0.8161 -0.1915 0.5453
vn -0.6954 0.5481 0.4647
vn -0.1653 0.9800 0.1104
vn -0.1653 -0.9800 0.1104
vn -0.6954 -0.5481 0.4647
vn -0.8161 0.1915 0.5453
vn -0.5522 -0.8264 0.1098
vn -0.9626 -0.1915 0.1915
vn -0.8203 0.5481 0.1632
vn -0.1949 0.9800 0.0388
vn -0.1949 -0.9800 0.0388
vn -0.8203 -0.5481 0.1632
vn -0.9626 0.1915 0.1915
vn -0.5522 0.8264 0.1098
vn -0.1949 0.9800 -0.0388
vn -0.1949 -0.9800 -0.0388
vn -0.8203 -0.5481 -0.1632
vn -0.9626 0.1915 -0.1915
vn -0.5522 0.8264 -0.1098
vn -0.5522 -0.8264 -0.1098
vn -0.9626 -0.1915 -0.1915
vn -0.8203 0.5481 -0.1632
vn -0.6954 -0.5481 -0.4647
vn -0.8161 0.1915 -0.5453
vn -0.4681 0.8264 -0.3128
vn -0.4681 -0.8264 -0.3128
vn -0.8161 -0.1915 -0.5453
vn -0.6954 0.5481 -0.4647
vn -0.1653 0.9800 -0.1104
vn -0.1653 -0.9800 -0.1104
vn -0.3128 -0.8264 -0.4681
vn -0.5453 -0.1915 -0.8161
vn -0.4647 0.5481 -0.6954
vn -0.1104 0.9800 -0.1653
vn -0.1104 -0.9800 -0.1653
vn -0.4647 -0.5481 -0.6954
vn -0.5453 0.1915 -0.8161
vn -0.3128 0.8264 -0.4681
vn -0.1915 -0.1915 -0.9626
vn -0.1632 0.5481 -0.8203
vn -0.0388 0.9800 -0.1949
vn -0.0388 -0.9800 -0.1949
vn -0.1632 -0.5481 -0.8203
vn -0.1915 0.1915 -0.9626
vn -0.1098 0.8264 -0.5522
vn -0.1098 -0.8264 -0.5522
vn 0.1617 0.9080 -0.3866
vn 0.1715 0.9102 0.3771
vn 0.0844 0.3980 0.9135
vn 0.0535 0.3547 -0.9335
vn -0.0853 -0.4012 -0.9120
vn -0.1727 -0.9099 -0.3771
vn -0.4458 -0.1955 -0.8735
vn -0.1627 -0.9069 0.3888
vn -0.0536 -0.3545 0.9335
vn -1.0000 -0.0000 -0.0000
vn -0.2379 -0.3561 0.9036
vn -0.1239 -0.9150 0.3840
vn 0.0708 -0.9219 -0.3810
vn 0.2164 -0.3865 -0.8965
vn 0.2370 0.3557 -0.9040
vn -0.2130 0.3854 0.8978
vn -0.0682 0.9221 0.3809
vn 0.1215 0.9155 -0.3835
vn 0.1289 -0.5694 0.8119
vn -0.1096 -0.3686 0.9231
vn 0.1086 0.3703 -0.9225
vn -0.7118 -0.6172 -0.3352
vn 0.5855 0.7122 -0.3873
vn 0.4266 0.2094 0.8798
vn -0.5877 -0.7090 0.3898
vn 0.6937 0.6355 0.3390
vn 0.7477 -0.6640 0.0109
vn -0.8368 -0.4327 -0.3355
vn 0.6324 -0.1093 0.7669
vn 0.5242 0.7621 -0.3799
vn -0.5268 -0.7599 0.3809
vn -0.6265 0.1023 -0.7727
vn 0.8384 0.4293 0.3358
vn -0.1240 0.5669 -0.8144
vt 0.824872 0.336898
vt 0.824873 0.372885
vt 0.869795 0.372885
vt 0.849184 0.336898
vt 0.824872 0.426743
vt 0.824872 0.490273
vt 0.888402 0.490273
vt 0.883567 0.426743
vt 0.824872 0.553803
vt 0.824873 0.607661
vt 0.869795 0.607661
vt 0.883567 0.553803
vt 0.845861 0.210531
vt 0.845861 0.160315
vt 0.865077 0.206709
vt 0.824873 0.643648
vt 0.849184 0.643648
vt 0.881369 0.195823
vt 0.933325 0.426743
vt 0.907878 0.372885
vt 0.933325 0.553803
vt 0.942261 0.490273
vt 0.869795 0.643648
vt 0.907878 0.607661
vt 0.869795 0.336898
vt 0.966573 0.426743
vt 0.933325 0.372885
vt 0.966573 0.553803
vt 0.978247 0.490273
vt 0.883567 0.643648
vt 0.933325 0.607661
vt 0.883567 0.336898
vt 0.892254 0.179532
vt 0.526257 0.012026
vt 0.546868 0.048013
vt 0.501945 0.048013
vt 0.501945 0.012026
vt 0.560639 0.101871
vt 0.565475 0.165401
vt 0.501945 0.165401
vt 0.501945 0.101871
vt 0.560639 0.228931
vt 0.546868 0.282789
vt 0.501945 0.282789
vt 0.501945 0.228931
vt 0.896076 0.160315
vt 0.526257 0.318776
vt 0.501945 0.318776
vt 0.438415 0.165401
vt 0.443251 0.101871
vt 0.457023 0.282789
vt 0.443251 0.228931
vt 0.892254 0.141099
vt 0.457023 0.048013
vt 0.477633 0.318776
vt 0.477633 0.012026
vt 0.881369 0.124807
vt 0.280544 0.040931
vt 0.315246 0.097146
vt 0.280544 0.097146
vt 0.253984 0.040931
vt 0.327432 0.163455
vt 0.315246 0.229765
vt 0.280544 0.229765
vt 0.289870 0.163455
vt 0.280544 0.285980
vt 0.228608 0.323541
vt 0.214234 0.323541
vt 0.253984 0.285980
vt 0.228608 0.003370
vt 0.214234 0.003370
vt 0.228608 0.229765
vt 0.233656 0.163455
vt 0.192722 0.323541
vt 0.214234 0.285980
vt 0.214234 0.040931
vt 0.192722 0.003370
vt 0.228608 0.097146
vt 0.865077 0.113922
vt 0.167346 0.040931
vt 0.167346 0.003370
vt 0.167346 0.163455
vt 0.167346 0.097146
vt 0.167346 0.285980
vt 0.167346 0.229765
vt 0.845861 0.110100
vt 0.167346 0.323541
vt 0.120458 0.285980
vt 0.106084 0.229765
vt 0.826644 0.113922
vt 0.106084 0.097146
vt 0.120458 0.040931
vt 0.101036 0.163455
vt 0.141970 0.323541
vt 0.141970 0.003370
vt 0.810353 0.124807
vt 0.054148 0.097146
vt 0.080708 0.040931
vt 0.054148 0.229765
vt 0.044822 0.163455
vt 0.120458 0.323541
vt 0.080708 0.285980
vt 0.120458 0.003370
vt 0.106084 0.323541
vt 0.054148 0.285980
vt 0.054148 0.040931
vt 0.106084 0.003370
vt 0.007260 0.163455
vt 0.019446 0.097146
vt 0.019446 0.229765
vt 0.799467 0.141099
vt 0.477633 0.012026
vt 0.457023 0.048013
vt 0.501945 0.048013
vt 0.501945 0.012026
vt 0.443251 0.101871
vt 0.438415 0.165401
vt 0.501945 0.165401
vt 0.501945 0.101871
vt 0.443251 0.228931
vt 0.457023 0.282789
vt 0.501945 0.282789
vt 0.501945 0.228931
vt 0.795645 0.160315
vt 0.477633 0.318776
vt 0.501945 0.318776
vt 0.799467 0.179532
vt 0.560639 0.101871
vt 0.560639 0.228931
vt 0.565475 0.165401
vt 0.526257 0.318776
vt 0.526257 0.012026
vt 0.716420 0.372885
vt 0.683173 0.426743
vt 0.716420 0.426743
vt 0.741867 0.372885
vt 0.671498 0.490273
vt 0.683173 0.553803
vt 0.716420 0.553803
vt 0.707484 0.490273
vt 0.716420 0.607661
vt 0.766178 0.643648
vt 0.779950 0.643648
vt 0.741867 0.607661
vt 0.766178 0.336898
vt 0.779950 0.336898
vt 0.810353 0.195823
vt 0.779950 0.372885
vt 0.800561 0.336898
vt 0.761343 0.490273
vt 0.766178 0.426743
vt 0.779950 0.607661
vt 0.766178 0.553803
vt 0.826644 0.206709
vt 0.800561 0.643648
vt 0.489852 0.505617
vt 0.477925 0.457323
vt 0.477505 0.456753
vt 0.489845 0.506233
vt 0.489685 0.504630
vt 0.477987 0.457543
vt 0.489470 0.503884
vt 0.477942 0.457252
vt 0.477052 0.456098
vt 0.489764 0.506123
vt 0.477140 0.455733
vt 0.489742 0.505316
vt 0.477611 0.455912
vt 0.489635 0.504328
vt 0.464495 0.403974
vt 0.464803 0.404376
vt 0.477884 0.456561
vt 0.489463 0.503757
vt 0.451416 0.330774
vt 0.451685 0.331887
vt 0.451087 0.332863
vt 0.449974 0.333132
vt 0.448998 0.332534
vt 0.448729 0.331421
vt 0.449327 0.330444
vt 0.450440 0.330176
vt 0.511858 0.594205
vt 0.512347 0.595432
vt 0.511463 0.594248
vt 0.511239 0.594991
vt 0.511303 0.595938
vt 0.511457 0.596712
vt 0.512837 0.598342
vt 0.511939 0.597404
vt 0.466148 0.409386
vt 0.465791 0.408197
vt 0.449588 0.340775
vt 0.448950 0.341436
vt 0.464710 0.405237
vt 0.465284 0.406148
vt 0.465446 0.407429
vt 0.466069 0.409057
vt 0.582089 0.519381
vt 0.573206 0.533904
vt 0.556657 0.537892
vt 0.542134 0.529010
vt 0.538146 0.512460
vt 0.547028 0.497937
vt 0.563578 0.493949
vt 0.578100 0.502831
vt 0.449267 0.333676
vt 0.449970 0.337378
vt 0.447986 0.338165
vt 0.446359 0.331160
vt 0.446669 0.331165
vt 0.447736 0.331567
s 0
usemtl Material.001
f 4/1/1 114/2/1 10/3/1 11/4/1
f 3/5/2 2/6/2 8/7/2 9/8/2
f 1/9/3 113/10/3 6/11/3 7/12/3
f 112/13/4 62/14/4 5/15/4
f 61/14/5 4/13/5 11/15/5
f 114/2/6 3/5/6 9/8/6 10/3/6
f 2/6/7 1/9/7 7/12/7 8/7/7
f 113/10/8 112/16/8 5/17/8 6/11/8
f 5/15/9 62/14/9 12/18/9
f 61/14/10 11/15/10 18/18/10
f 10/3/11 9/8/11 16/19/11 17/20/11
f 8/7/12 7/12/12 14/21/12 15/22/12
f 6/11/13 5/17/13 12/23/13 13/24/13
f 11/4/14 10/3/14 17/20/14 18/25/14
f 9/8/15 8/7/15 15/22/15 16/19/15
f 7/12/16 6/11/16 13/24/16 14/21/16
f 17/20/17 16/19/17 23/26/17 24/27/17
f 15/22/18 14/21/18 21/28/18 22/29/18
f 13/24/19 12/23/19 19/30/19 20/31/19
f 18/25/20 17/20/20 24/27/20 25/32/20
f 16/19/21 15/22/21 22/29/21 23/26/21
f 14/21/22 13/24/22 20/31/22 21/28/22
f 12/18/23 62/14/23 19/33/23
f 61/14/24 18/18/24 25/33/24
f 25/34/25 24/35/25 31/36/25 32/37/25
f 23/38/26 22/39/26 29/40/26 30/41/26
f 21/42/27 20/43/27 27/44/27 28/45/27
f 19/33/28 62/14/28 26/46/28
f 61/14/29 25/33/29 32/46/29
f 24/35/30 23/38/30 30/41/30 31/36/30
f 22/39/31 21/42/31 28/45/31 29/40/31
f 20/43/32 19/47/32 26/48/32 27/44/32
f 30/41/33 29/40/33 36/49/33 37/50/33
f 28/45/34 27/44/34 34/51/34 35/52/34
f 26/46/35 62/14/35 33/53/35
f 61/14/36 32/46/36 39/53/36
f 31/36/37 30/41/37 37/50/37 38/54/37
f 29/40/38 28/45/38 35/52/38 36/49/38
f 27/44/39 26/48/39 33/55/39 34/51/39
f 32/37/40 31/36/40 38/54/40 39/56/40
f 61/14/41 39/53/41 46/57/41
f 38/58/42 37/59/42 44/60/42 45/61/42
f 36/62/43 35/63/43 42/64/43 43/65/43
f 34/66/44 33/67/44 40/68/44 41/69/44
f 39/70/45 38/58/45 45/61/45 46/71/45
f 37/59/46 36/62/46 43/65/46 44/60/46
f 35/63/47 34/66/47 41/69/47 42/64/47
f 33/53/48 62/14/48 40/57/48
f 43/65/49 42/64/49 49/72/49 50/73/49
f 41/69/50 40/68/50 47/74/50 48/75/50
f 46/71/51 45/61/51 52/76/51 53/77/51
f 44/60/52 43/65/52 50/73/52 51/78/52
f 42/64/53 41/69/53 48/75/53 49/72/53
f 40/57/54 62/14/54 47/79/54
f 61/14/55 46/57/55 53/79/55
f 45/61/56 44/60/56 51/78/56 52/76/56
f 53/77/57 52/76/57 59/80/57 60/81/57
f 51/78/58 50/73/58 57/82/58 58/83/58
f 49/72/59 48/75/59 55/84/59 56/85/59
f 47/79/60 62/14/60 54/86/60
f 61/14/61 53/79/61 60/86/61
f 52/76/62 51/78/62 58/83/62 59/80/62
f 50/73/63 49/72/63 56/85/63 57/82/63
f 48/75/64 47/74/64 54/87/64 55/84/64
f 56/85/65 55/84/65 64/88/65 65/89/65
f 54/86/66 62/14/66 63/90/66
f 61/14/67 60/86/67 69/90/67
f 59/80/68 58/83/68 67/91/68 68/92/68
f 57/82/69 56/85/69 65/89/69 66/93/69
f 55/84/70 54/87/70 63/94/70 64/88/70
f 60/81/71 59/80/71 68/92/71 69/95/71
f 58/83/72 57/82/72 66/93/72 67/91/72
f 61/14/73 69/90/73 76/96/73
f 68/92/74 67/91/74 74/97/74 75/98/74
f 66/93/75 65/89/75 72/99/75 73/100/75
f 64/88/76 63/94/76 70/101/76 71/102/76
f 69/95/77 68/92/77 75/98/77 76/103/77
f 67/91/78 66/93/78 73/100/78 74/97/78
f 65/89/79 64/88/79 71/102/79 72/99/79
f 63/90/80 62/14/80 70/96/80
f 71/102/81 70/101/81 77/104/81 78/105/81
f 76/103/82 75/98/82 82/106/82 83/107/82
f 74/97/83 73/100/83 80/108/83 81/109/83
f 72/99/84 71/102/84 78/105/84 79/110/84
f 70/96/85 62/14/85 77/111/85
f 61/14/86 76/96/86 83/111/86
f 75/98/87 74/97/87 81/109/87 82/106/87
f 73/100/88 72/99/88 79/110/88 80/108/88
f 83/112/89 82/113/89 89/114/89 90/115/89
f 81/116/90 80/117/90 87/118/90 88/119/90
f 79/120/91 78/121/91 85/122/91 86/123/91
f 77/111/92 62/14/92 84/124/92
f 61/14/93 83/111/93 90/124/93
f 82/113/94 81/116/94 88/119/94 89/114/94
f 80/117/95 79/120/95 86/123/95 87/118/95
f 78/121/96 77/125/96 84/126/96 85/122/96
f 84/124/97 62/14/97 91/127/97
f 61/14/98 90/124/98 97/127/98
f 89/114/99 88/119/99 95/128/99 96/35/99
f 87/118/100 86/123/100 93/129/100 94/130/100
f 85/122/101 84/126/101 91/131/101 92/43/101
f 90/115/102 89/114/102 96/35/102 97/132/102
f 88/119/103 87/118/103 94/130/103 95/128/103
f 86/123/104 85/122/104 92/43/104 93/129/104
f 96/133/105 95/134/105 102/135/105 103/136/105
f 94/137/106 93/138/106 100/139/106 101/140/106
f 92/141/107 91/142/107 98/143/107 99/144/107
f 97/145/108 96/133/108 103/136/108 104/146/108
f 95/134/109 94/137/109 101/140/109 102/135/109
f 93/138/110 92/141/110 99/144/110 100/139/110
f 91/127/111 62/14/111 98/147/111
f 61/14/112 97/127/112 104/147/112
f 104/146/113 103/136/113 110/148/113 111/149/113
f 102/135/114 101/140/114 108/150/114 109/151/114
f 100/139/115 99/144/115 106/152/115 107/153/115
f 98/147/116 62/14/116 105/154/116
f 61/14/117 104/147/117 111/154/117
f 103/136/118 102/135/118 109/151/118 110/148/118
f 101/140/119 100/139/119 107/153/119 108/150/119
f 99/144/120 98/143/120 105/155/120 106/152/120
f 109/151/121 108/150/121 2/6/121 3/5/121
f 107/153/122 106/152/122 113/10/122 1/9/122
f 105/154/123 62/14/123 112/13/123
f 61/14/124 111/154/124 4/13/124
f 110/148/125 109/151/125 3/5/125 114/2/125
f 108/150/126 107/153/126 1/9/126 2/6/126
f 106/152/127 105/155/127 112/16/127 113/10/127
f 111/149/128 110/148/128 114/2/128 4/1/128
f 133/156/129 123/157/129 121/158/129 132/159/129
f 134/160/130 125/161/130 123/157/130 133/156/130
f 135/162/131 127/163/131 125/161/131 134/160/131
f 132/159/132 121/158/132 119/164/132 131/165/132
f 131/165/133 119/164/133 117/166/133 136/167/133
f 136/167/134 117/166/134 115/168/134 137/169/134
f 117/166/135 119/164/135 139/170/135 144/171/135
f 137/169/136 115/168/136 130/172/136 138/173/136
f 138/173/137 130/172/137 127/163/137 135/162/137
f 122/174/138 120/175/138 118/176/138 116/177/138 129/178/138 128/179/138 126/180/138 124/181/138
f 129/182/139 138/173/139 135/162/139 128/183/139
f 116/184/140 137/169/140 138/173/140 129/182/140
f 118/185/141 136/167/141 137/169/141 116/184/141
f 120/186/142 131/165/142 136/167/142 118/185/142
f 122/187/143 132/159/143 131/165/143 120/186/143
f 128/183/144 135/162/144 134/160/144 126/188/144
f 126/188/145 134/160/145 133/156/145 124/189/145
f 124/189/146 133/156/146 132/159/146 122/187/146
f 143/190/147 146/191/147 154/192/147 151/193/147
f 127/163/148 130/172/148 146/191/148 143/190/148
f 119/164/149 121/158/149 140/194/149 139/170/149
f 115/168/150 117/166/150 144/171/150 145/195/150
f 121/158/151 123/157/151 141/196/151 140/194/151
f 125/161/152 127/163/152 143/190/152 142/197/152
f 130/172/153 115/168/153 145/195/153 146/191/153
f 123/157/154 125/161/154 142/197/154 141/196/154
f 148/198/155 149/199/155 150/200/155 151/201/155 154/202/155 153/203/155 152/204/155 147/205/155
f 145/195/156 144/171/156 152/206/156 153/207/156
f 142/197/157 143/190/157 151/193/157 150/208/157
f 140/194/158 141/196/158 149/209/158 148/210/158
f 146/191/159 145/195/159 153/207/159 154/192/159
f 144/171/160 139/170/160 147/211/160 152/206/160
f 141/196/161 142/197/161 150/208/161 149/209/161
f 139/170/162 140/194/162 148/210/162 147/211/162
